<svg xmlns="http://www.w3.org/2000/svg" viewBox="0 0 84 30">
  <path fill="currentColor" d="M21.898 3.657a12.5 12.5 0 0 1 1.662 3.531Q24.1 9.018 24.1 11.26q0 2.244-.499 4.779a22.6 22.6 0 0 1-1.662 5.069Q20.776 23.643 19.114 25.596t-4.197 3.199Q12.382 30 9.349 30q-4.446 0-6.897-3.158Q0 23.642 0 18.657q0-5.028 1.745-9.183 1.787-4.197 5.07-6.815Q10.137 0 14.168 0q2.66 0 4.654.997t3.075 2.66M10.596 27.175Q12.549 27.175 13.878 25.471Q15.249 23.767 15.956 21.025A43.7 43.7 0 0 0 17.368 9.93Q17.368 2.824 13.546 2.824Q11.386 2.824 9.765 5.401Q6.731 10.261 6.731 18.863Q6.731 23.559 7.271 24.68Q7.521 25.304 7.936 25.968Q8.684 27.174 10.596 27.175M37.926 12.3Q38.008 12.216 38.383 11.219Q40.336 11.219 43.618 12.382A57.5 57.5 0 0 0 41.956 19.612Q41.333 23.352 41.333 24.972Q41.333 26.552 41.665 26.552Q41.915 26.552 43.493 25.762L43.993 25.512L44.74 26.967Q44.365 27.299 43.743 27.799Q43.161 28.299 41.499 29.171Q39.837 30.002 38.507 30.002Q35.932 30.002 35.516 27.675Q32.856 30 30.696 30q-2.12 0-3.615-1.662-1.455-1.662-1.455-5.236Q25.626 17.535 27.912 14.335Q30.196 11.095 33.438 11.095Q35.764 11.094 37.926 12.298M33.189 26.468Q34.187 26.468 35.432 25.678Q35.723 19.82 37.385 14.086Q36.14 13.546 35.266 13.546Q33.77 13.546 32.69 16.496Q31.652 19.406 31.651 22.937Q31.651 26.468 33.189 26.468"/>
  <path fill="currentColor" d="M57.86 24.058Q57.86 26.676 55.533 28.338Q53.247 30 50.297 30T45.602 28.753Q43.898 27.507 43.899 26.551Q43.899 25.97 45.353 24.681Q46.808 23.352 47.804 23.061Q49.882 24.598 51.212 27.922Q52.748 27.798 52.749 26.468Q52.749 24.557 49.383 21.067Q46.018 17.535 46.018 15.457T47.888 12.257Q49.758 11.094 52.375 11.094Q55.034 11.094 56.364 12.05Q57.694 12.964 57.694 14.584Q57.694 16.164 55.159 18.989Q55.449 19.279 55.907 19.779Q56.364 20.235 57.112 21.565Q57.86 22.894 57.86 24.058M53.87 17.535Q55.616 16.038 55.616 14.585Q55.616 13.13 53.622 13.13Q52.665 13.13 52.042 13.546Q51.419 13.92 51.419 14.418Q51.419 15.332 53.248 16.994zM68.392 13.67Q68.392 15.416 67.27 19.695Q66.148 23.934 66.148 25.263Q66.148 26.551 66.522 26.551Q66.771 26.551 68.433 25.761L68.932 25.513L69.638 26.967Q69.264 27.299 68.641 27.799Q68.017 28.299 66.314 29.171Q64.611 30.002 63.156 30.002T60.871 29.129Q60.04 28.216 60.04 26.719Q60.04 25.182 61.079 21.318Q62.117 17.412 62.117 16.248Q62.117 14.504 61.037 12.966L60.663 12.467L60.705 11.927Q62.907 11.304 67.852 11.304Q68.392 11.927 68.392 13.672M63.655 6.773Q62.824 5.942 62.824 4.571Q62.824 3.199 63.946 2.161Q65.109 1.121 66.605 1.121T68.932 1.953Q69.762 2.784 69.762 4.155Q69.763 5.485 68.559 6.524Q67.396 7.562 65.941 7.562T63.656 6.772M83.951 24.058Q83.951 26.619 81.624 28.281Q79.34 30 76.39 30T71.694 28.753Q69.991 27.507 69.991 26.551Q69.991 25.97 71.445 24.681Q72.9 23.352 73.897 23.061Q75.974 24.598 77.304 27.922Q78.841 27.798 78.842 26.468Q78.842 24.557 75.476 21.067Q72.11 17.535 72.11 15.457T73.98 12.257Q75.85 11.094 78.467 11.094Q81.127 11.094 82.457 12.05Q83.786 12.964 83.786 14.584Q83.786 16.164 81.251 18.989Q81.541 19.279 81.999 19.779Q82.456 20.235 83.204 21.565Q83.952 22.894 83.952 24.058M79.963 17.535Q81.708 16.038 81.708 14.585Q81.708 13.13 79.714 13.13Q78.758 13.13 78.135 13.546Q77.513 13.92 77.513 14.418Q77.513 15.332 79.341 16.994z"/>
</svg>